leg6dof9musc_added_mass_states
version=1
nRows=21
nColumns=33
inDegrees=yes

# SIMM Motion File Header:
name leg6dof9musc_added_mass_states
datacolumns 33
datarows 21
otherdata 1
range 1.14985748 1.16962515
endheader
time	pelvis_tilt	pelvis_tx	pelvis_ty	hip_flexion_r	knee_angle_r	knee_angle_pat_r	ankle_angle_r	pelvis_tilt_u	pelvis_tx_u	pelvis_ty_u	hip_flexion_r_u	knee_angle_r_u	knee_angle_pat_r_u	ankle_angle_r_u	bifemlh_r.activation	bifemlh_r.fiber_length	bifemsh_r.activation	bifemsh_r.fiber_length	glut_max2_r.activation	glut_max2_r.fiber_length	psoas_r.activation	psoas_r.fiber_length	rect_fem_r.activation	rect_fem_r.fiber_length	vas_int_r.activation	vas_int_r.fiber_length	med_gas_r.activation	med_gas_r.fiber_length	soleus_r.activation	soleus_r.fiber_length	tib_ant_r.activation	tib_ant_r.fiber_length
      1.14985748	     -1.64177319	      0.00536068	      1.07152833	     -5.83478042	    -10.93257104	    -10.93256680	     17.12426306	    -14.25939877	     -0.12049781	     -0.16776730	    -64.32495397	     11.68206193	     11.68206193	     35.18171348	      0.30063008	      0.09302329	      0.07025001	      0.19294959	      0.05463772	      0.08253649	      0.06594963	      0.11158336	      0.02130658	      0.12894691	      0.02041102	      0.08751620	      0.31009503	      0.11061200	      0.20813207	      0.10129359	      0.02000164	      0.07704767
      1.15000000	     -1.64378996	      0.00534351	      1.07150443	     -5.84396599	    -10.93090777	    -10.93090353	     17.12928629	    -14.04131758	     -0.12044760	     -0.16758685	    -64.57819257	     11.65902495	     11.65902495	     35.31200462	      0.30160159	      0.09300516	      0.07007128	      0.19295157	      0.05489463	      0.08252284	      0.06578620	      0.11159136	      0.02130194	      0.12895126	      0.02040956	      0.08751452	      0.30949141	      0.11061740	      0.20833330	      0.10129608	      0.02000163	      0.07704343
      1.15003572	     -1.64429052	      0.00533921	      1.07149845	     -5.84627391	    -10.93049140	    -10.93048717	     17.13054826	    -13.98513406	     -0.12043501	     -0.16753992	    -64.64355167	     11.65371746	     11.65371746	     35.34668003	      0.30149560	      0.09300063	      0.07012312	      0.19295206	      0.05487932	      0.08251943	      0.06625811	      0.11159333	      0.02130077	      0.12895235	      0.02040920	      0.08751411	      0.30939781	      0.11061876	      0.20841794	      0.10129671	      0.02000163	      0.07704237
      1.15007144	     -1.64478905	      0.00533491	      1.07149246	     -5.84858420	    -10.93007522	    -10.93007098	     17.13181149	    -13.92709812	     -0.12042238	     -0.16749084	    -64.71114342	     11.64890648	     11.64890648	     35.38211159	      0.30132022	      0.09299611	      0.07019403	      0.19295254	      0.05484818	      0.08251603	      0.06683065	      0.11159518	      0.02129961	      0.12895345	      0.02040883	      0.08751369	      0.30931574	      0.11062013	      0.20850918	      0.10129734	      0.02000163	      0.07704131
      1.15025004	     -1.64724882	      0.00531340	      1.07146257	     -5.86017394	    -10.92799640	    -10.92799217	     17.13814732	    -13.61064901	     -0.12035883	     -0.16721510	    -65.08070281	     11.63174103	     11.63174103	     35.57035715	      0.30044565	      0.09297375	      0.07054478	      0.19295480	      0.05469293	      0.08249923	      0.06966289	      0.11160311	      0.02129382	      0.12895893	      0.02040701	      0.08751160	      0.30890653	      0.11062699	      0.20896054	      0.10130045	      0.02000162	      0.07703601
      1.15101317	     -1.65699975	      0.00522166	      1.07133556	     -5.91058465	    -10.91911809	    -10.91911386	     17.16565146	    -11.84037030	     -0.12007984	     -0.16555231	    -67.15996056	     11.66147645	     11.66147645	     36.55684851	      0.29675247	      0.09288224	      0.07197489	      0.19296235	      0.05403733	      0.08243062	      0.08121047	      0.11162243	      0.02126937	      0.12898267	      0.02039932	      0.08750282	      0.30717847	      0.11065684	      0.21080083	      0.10131353	      0.02000159	      0.07701342
      1.15200063	     -1.66723936	      0.00510327	      1.07117352	     -5.97861216	    -10.90751069	    -10.90750645	     17.20249966	     -8.77472885	     -0.11970263	     -0.16249580	    -70.76935759	     11.87493839	     11.87493839	     38.10158051	      0.29207701	      0.09277268	      0.07367058	      0.19296846	      0.05320735	      0.08234758	      0.09490262	      0.11163195	      0.02123842	      0.12901419	      0.02038958	      0.08749168	      0.30499080	      0.11069677	      0.21298289	      0.10133013	      0.02000155	      0.07698426
      1.15351035	     -1.67623487	      0.00492301	      1.07093257	     -6.09045630	    -10.88918904	    -10.88918480	     17.26178753	     -2.96690586	     -0.11909219	     -0.15648674	    -77.59836590	     12.43033545	     12.43033545	     40.37130548	      0.28514816	      0.09262140	      0.07596006	      0.19297319	      0.05197736	      0.08222738	      0.11338936	      0.11163386	      0.02119255	      0.12906465	      0.02037515	      0.08747499	      0.30174875	      0.11076067	      0.21592905	      0.10135539	      0.02000149	      0.07693953
      1.15502008	     -1.67586496	      0.00474370	      1.07070143	     -6.21329216	    -10.86992555	    -10.86992131	     17.32412868	      3.50776775	     -0.11844434	     -0.14964258	    -85.18051449	     13.09101973	     13.09101973	     42.12408713	      0.27847595	      0.09248577	      0.07792871	      0.19297517	      0.05079293	      0.08210884	      0.12928557	      0.11162776	      0.02114838	      0.12911868	      0.02036126	      0.08745841	      0.29862680	      0.11082803	      0.21846236	      0.10138118	      0.02000144	      0.07689426
      1.15706266	     -1.65975828	      0.00450270	      1.07040532	     -6.39768281	    -10.84236135	    -10.84235711	     17.41184406	     12.14448803	     -0.11751693	     -0.14040616	    -95.20679517	     13.84701203	     13.84701203	     43.56841275	      0.26984045	      0.09232043	      0.08016052	      0.19297653	      0.04925998	      0.08194202	      0.14730660	      0.11161969	      0.02109121	      0.12919920	      0.02034327	      0.08743566	      0.29458620	      0.11092449	      0.22133429	      0.10141787	      0.02000137	      0.07683173
      1.15856732	     -1.63715404	      0.00432642	      1.07019871	     -6.54590248	    -10.82127963	    -10.82127539	     17.47770926	     17.75064305	     -0.11679989	     -0.13437503	   -101.61571688	     14.12199055	     14.12199055	     43.91133955	      0.26375531	      0.09220803	      0.08153628	      0.19297773	      0.04817976	      0.08181034	      0.15841543	      0.11162011	      0.02105092	      0.12926503	      0.02033060	      0.08741849	      0.29173893	      0.11099913	      0.22310466	      0.10144665	      0.02000132	      0.07678464
      1.16000000	     -1.60847911	      0.00415958	      1.07000969	     -6.69512436	    -10.80106145	    -10.80105721	     17.54082547	     22.09281574	     -0.11609320	     -0.12970749	   -106.46219109	     14.03782015	     14.03782015	     44.27420916	      0.25817022	      0.09210602	      0.08266720	      0.19297946	      0.04718831	      0.08167660	      0.16754721	      0.11162585	      0.02101395	      0.12933338	      0.02031897	      0.08740180	      0.28912564	      0.11107263	      0.22455996	      0.10147556	      0.02000127	      0.07673903
      1.16004877	     -1.60739863	      0.00415392	      1.07000337	     -6.70031942	    -10.80037713	    -10.80037289	     17.54298506	     22.22016926	     -0.11606878	     -0.12957109	   -106.60151703	     14.02788284	     14.02788284	     44.29674187	      0.25804767	      0.09210261	      0.08260953	      0.19297953	      0.04717305	      0.08167190	      0.16835737	      0.11162615	      0.02136860	      0.12933572	      0.02031858	      0.08740123	      0.28894545	      0.11107517	      0.22483423	      0.10147657	      0.02000127	      0.07673746
      1.16009753	     -1.60631199	      0.00414826	      1.06999705	     -6.70552123	    -10.79969331	    -10.79968907	     17.54514577	     22.34606818	     -0.11604439	     -0.12943636	   -106.73901882	     14.01744307	     14.01744307	     44.32014191	      0.25793808	      0.09209920	      0.08253324	      0.19297961	      0.04716138	      0.08166718	      0.16926763	      0.11162645	      0.02179250	      0.12933783	      0.02031819	      0.08740066	      0.28874692	      0.11107772	      0.22515269	      0.10147757	      0.02000127	      0.07673590
      1.16034136	     -1.60078867	      0.00411998	      1.06996557	     -6.73162836	    -10.79628250	    -10.79627827	     17.55596746	     22.95288900	     -0.11592277	     -0.12878859	   -107.39824622	     13.95786038	     13.95786038	     44.44824694	      0.25739211	      0.09208218	      0.08215322	      0.19298016	      0.04710326	      0.08164342	      0.17375296	      0.11162782	      0.02388125	      0.12934576	      0.02031626	      0.08739779	      0.28775791	      0.11109060	      0.22672194	      0.10148248	      0.02000126	      0.07672806
      1.16156049	     -1.57123268	      0.00397903	      1.06981022	     -6.86422970	    -10.77952598	    -10.77952175	     17.61060242	     25.34629567	     -0.11531958	     -0.12627679	   -109.90580019	     13.48262143	     13.48262143	     45.17901595	      0.25471162	      0.09199713	      0.08028747	      0.19298578	      0.04681791	      0.08151995	      0.19461010	      0.11163291	      0.03359413	      0.12935532	      0.02030676	      0.08738339	      0.28290225	      0.11115812	      0.23401905	      0.10150498	      0.02000122	      0.07668855
      1.16299919	     -1.53366550	      0.00381363	      1.06962963	     -7.02334826	    -10.76074960	    -10.76074536	     17.67599866	     26.56513847	     -0.11460585	     -0.12511882	   -110.91427379	     12.55380444	     12.55380444	     45.59897420	      0.25165169	      0.09189659	      0.07815761	      0.19299732	      0.04649217	      0.08136579	      0.21616601	      0.11163807	      0.04363241	      0.12933219	      0.02029593	      0.08736646	      0.27735923	      0.11124402	      0.24156064	      0.10152860	      0.02000118	      0.07664124
      1.16443789	     -1.49574382	      0.00364927	      1.06944914	     -7.18223281	    -10.74358891	    -10.74358467	     17.74142302	     25.81074104	     -0.11387452	     -0.12617267	   -109.54961150	     11.23875243	     11.23875243	     45.25741447	      0.24869987	      0.09179560	      0.07610300	      0.19301229	      0.04617794	      0.08120510	      0.23483343	      0.11164524	      0.05232556	      0.12928562	      0.02028547	      0.08734987	      0.27201204	      0.11133567	      0.24809165	      0.10155053	      0.02000114	      0.07659323
      1.16616698	     -1.45382272	      0.00345315	      1.06922772	     -7.36793633	    -10.72586645	    -10.72586221	     17.81905666	     22.19291121	     -0.11295572	     -0.13048787	   -104.67160001	      9.17872089	      9.17872089	     44.55401669	      0.24528990	      0.09167381	      0.07372949	      0.19303253	      0.04581493	      0.08100785	      0.25398961	      0.11165930	      0.06124632	      0.12921562	      0.02027339	      0.08733089	      0.26583493	      0.11145151	      0.25479366	      0.10157597	      0.02000109	      0.07653485
      1.16789607	     -1.42058352	      0.00325868	      1.06899610	     -7.54232288	    -10.71209255	    -10.71208832	     17.89570630	     15.83871801	     -0.11197809	     -0.13788110	    -96.54740138	      6.69803288	      6.69803288	     44.19407005	      0.24202419	      0.09155231	      0.07145640	      0.19305333	      0.04546728	      0.08081185	      0.27010406	      0.11168119	      0.06875059	      0.12914202	      0.02026183	      0.08731360	      0.25991915	      0.11157119	      0.26043149	      0.10160139	      0.02000104	      0.07647600
      1.16962515	     -1.40025921	      0.00306596	      1.06874954	     -7.70040081	    -10.70281408	    -10.70280984	     17.97238082	      7.40687511	     -0.11093137	     -0.14760654	    -85.99739174	      4.03328901	      4.03328901	     44.70560639	      0.23889665	      0.09143243	      0.06927948	      0.19307337	      0.04513434	      0.08062315	      0.28365977	      0.11171101	      0.07506330	      0.12907160	      0.02025075	      0.08729862	      0.25425365	      0.11169256	      0.26517411	      0.10162756	      0.02000100	      0.07641685
